<?xml version="1.0" encoding="UTF-8" standalone="no"?>
<!DOCTYPE svg PUBLIC "-//W3C//DTD SVG 1.1//EN"
 "http://www.w3.org/Graphics/SVG/1.1/DTD/svg11.dtd">
<!-- Generated by graphviz version 5.0.0 (20220707.1540)
 -->
<!-- Title: dependencies Pages: 1 -->
<svg width="348pt" height="174pt"
 viewBox="0.00 0.00 348.00 173.80" xmlns="http://www.w3.org/2000/svg" xmlns:xlink="http://www.w3.org/1999/xlink">
<g id="graph0" class="graph" transform="scale(1 1) rotate(0) translate(4 169.8)">
<title>dependencies</title>
<polygon fill="white" stroke="transparent" points="-4,4 -4,-169.8 344,-169.8 344,4 -4,4"/>
<text text-anchor="middle" x="170" y="-8.2" font-family="sans-serif" font-size="14.00">dependencies</text>
<g id="clust1" class="cluster">
<title>cluster_MySoaModule</title>
<polygon fill="none" stroke="black" stroke-dasharray="1,5" points="8,-32.8 8,-157.8 332,-157.8 332,-32.8 8,-32.8"/>
</g>
<g id="clust4" class="cluster">
<title>cluster_MySoaModule_imports</title>
<polygon fill="none" stroke="black" points="162,-40.8 162,-92.8 324,-92.8 324,-40.8 162,-40.8"/>
</g>
<g id="clust2" class="cluster">
<title>cluster_MySoaModule_declarations</title>
<polygon fill="none" stroke="black" points="16,-40.8 16,-92.8 154,-92.8 154,-40.8 16,-40.8"/>
</g>
<!-- MySoaComponent -->
<g id="node1" class="node">
<title>MySoaComponent</title>
<polygon fill="#ffffb3" stroke="black" points="145.78,-84.8 24.22,-84.8 24.22,-48.8 145.78,-48.8 145.78,-84.8"/>
<text text-anchor="middle" x="85" y="-62.6" font-family="Times,serif" font-size="14.00">MySoaComponent</text>
</g>
<!-- MySoaModule -->
<g id="node2" class="node">
<title>MySoaModule</title>
<polygon fill="#8dd3c7" stroke="black" points="214,-149.8 211,-153.8 190,-153.8 187,-149.8 114,-149.8 114,-113.8 214,-113.8 214,-149.8"/>
<text text-anchor="middle" x="164" y="-127.6" font-family="Times,serif" font-size="14.00">MySoaModule</text>
</g>
<!-- MySoaComponent&#45;&gt;MySoaModule -->
<g id="edge1" class="edge">
<title>MySoaComponent&#45;&gt;MySoaModule</title>
<path fill="none" stroke="black" d="M129.94,-84.91C129.94,-84.91 129.94,-103.79 129.94,-103.79"/>
<polygon fill="black" stroke="black" points="126.44,-103.79 129.94,-113.79 133.44,-103.79 126.44,-103.79"/>
</g>
<!-- MySoaRoutingModule -->
<g id="node3" class="node">
<title>MySoaRoutingModule</title>
<polygon fill="#8dd3c7" stroke="black" points="315.62,-84.8 312.62,-88.8 291.62,-88.8 288.62,-84.8 170.38,-84.8 170.38,-48.8 315.62,-48.8 315.62,-84.8"/>
<text text-anchor="middle" x="243" y="-62.6" font-family="Times,serif" font-size="14.00">MySoaRoutingModule</text>
</g>
<!-- MySoaRoutingModule&#45;&gt;MySoaModule -->
<g id="edge2" class="edge">
<title>MySoaRoutingModule&#45;&gt;MySoaModule</title>
<path fill="none" stroke="black" d="M192.22,-84.91C192.22,-84.91 192.22,-103.79 192.22,-103.79"/>
<polygon fill="black" stroke="black" points="188.72,-103.79 192.22,-113.79 195.72,-103.79 188.72,-103.79"/>
</g>
</g>
</svg>
