<?xml version="1.0" encoding="UTF-8" standalone="no"?>
<!DOCTYPE svg PUBLIC "-//W3C//DTD SVG 1.1//EN"
 "http://www.w3.org/Graphics/SVG/1.1/DTD/svg11.dtd">
<!-- Generated by graphviz version 5.0.0 (20220707.1540)
 -->
<!-- Title: dependencies Pages: 1 -->
<svg width="308pt" height="174pt"
 viewBox="0.00 0.00 308.00 173.80" xmlns="http://www.w3.org/2000/svg" xmlns:xlink="http://www.w3.org/1999/xlink">
<g id="graph0" class="graph" transform="scale(1 1) rotate(0) translate(4 169.8)">
<title>dependencies</title>
<polygon fill="white" stroke="transparent" points="-4,4 -4,-169.8 304,-169.8 304,4 -4,4"/>
<text text-anchor="middle" x="150" y="-8.2" font-family="sans-serif" font-size="14.00">dependencies</text>
<g id="clust1" class="cluster">
<title>cluster_SoaModule</title>
<polygon fill="none" stroke="black" stroke-dasharray="1,5" points="8,-32.8 8,-157.8 292,-157.8 292,-32.8 8,-32.8"/>
</g>
<g id="clust2" class="cluster">
<title>cluster_SoaModule_declarations</title>
<polygon fill="none" stroke="black" points="166,-40.8 166,-92.8 284,-92.8 284,-40.8 166,-40.8"/>
</g>
<g id="clust4" class="cluster">
<title>cluster_SoaModule_imports</title>
<polygon fill="none" stroke="black" points="16,-40.8 16,-92.8 158,-92.8 158,-40.8 16,-40.8"/>
</g>
<!-- SoaComponent -->
<g id="node1" class="node">
<title>SoaComponent</title>
<polygon fill="#ffffb3" stroke="black" points="276.33,-84.8 173.67,-84.8 173.67,-48.8 276.33,-48.8 276.33,-84.8"/>
<text text-anchor="middle" x="225" y="-62.6" font-family="Times,serif" font-size="14.00">SoaComponent</text>
</g>
<!-- SoaModule -->
<g id="node2" class="node">
<title>SoaModule</title>
<polygon fill="#8dd3c7" stroke="black" points="196.05,-149.8 193.05,-153.8 172.05,-153.8 169.05,-149.8 115.95,-149.8 115.95,-113.8 196.05,-113.8 196.05,-149.8"/>
<text text-anchor="middle" x="156" y="-127.6" font-family="Times,serif" font-size="14.00">SoaModule</text>
</g>
<!-- SoaComponent&#45;&gt;SoaModule -->
<g id="edge1" class="edge">
<title>SoaComponent&#45;&gt;SoaModule</title>
<path fill="none" stroke="black" d="M185.06,-84.91C185.06,-84.91 185.06,-103.79 185.06,-103.79"/>
<polygon fill="black" stroke="black" points="181.56,-103.79 185.06,-113.79 188.56,-103.79 181.56,-103.79"/>
</g>
<!-- SoaRoutingModule -->
<g id="node3" class="node">
<title>SoaRoutingModule</title>
<polygon fill="#8dd3c7" stroke="black" points="149.67,-84.8 146.67,-88.8 125.67,-88.8 122.67,-84.8 24.33,-84.8 24.33,-48.8 149.67,-48.8 149.67,-84.8"/>
<text text-anchor="middle" x="87" y="-62.6" font-family="Times,serif" font-size="14.00">SoaRoutingModule</text>
</g>
<!-- SoaRoutingModule&#45;&gt;SoaModule -->
<g id="edge2" class="edge">
<title>SoaRoutingModule&#45;&gt;SoaModule</title>
<path fill="none" stroke="black" d="M132.78,-84.91C132.78,-84.91 132.78,-103.79 132.78,-103.79"/>
<polygon fill="black" stroke="black" points="129.28,-103.79 132.78,-113.79 136.28,-103.79 129.28,-103.79"/>
</g>
</g>
</svg>
