<?xml version="1.0" encoding="UTF-8" standalone="no"?>
<!DOCTYPE svg PUBLIC "-//W3C//DTD SVG 1.1//EN"
 "http://www.w3.org/Graphics/SVG/1.1/DTD/svg11.dtd">
<!-- Generated by graphviz version 5.0.0 (20220707.1540)
 -->
<!-- Title: dependencies Pages: 1 -->
<svg width="406pt" height="174pt"
 viewBox="0.00 0.00 406.00 173.80" xmlns="http://www.w3.org/2000/svg" xmlns:xlink="http://www.w3.org/1999/xlink">
<g id="graph0" class="graph" transform="scale(1 1) rotate(0) translate(4 169.8)">
<title>dependencies</title>
<polygon fill="white" stroke="transparent" points="-4,4 -4,-169.8 402,-169.8 402,4 -4,4"/>
<text text-anchor="middle" x="199" y="-8.2" font-family="sans-serif" font-size="14.00">dependencies</text>
<g id="clust1" class="cluster">
<title>cluster_BookingListModule</title>
<polygon fill="none" stroke="black" stroke-dasharray="1,5" points="8,-32.8 8,-157.8 390,-157.8 390,-32.8 8,-32.8"/>
</g>
<g id="clust2" class="cluster">
<title>cluster_BookingListModule_declarations</title>
<polygon fill="none" stroke="black" points="214,-40.8 214,-92.8 382,-92.8 382,-40.8 214,-40.8"/>
</g>
<g id="clust4" class="cluster">
<title>cluster_BookingListModule_imports</title>
<polygon fill="none" stroke="black" points="16,-40.8 16,-92.8 206,-92.8 206,-40.8 16,-40.8"/>
</g>
<!-- BookingListComponent -->
<g id="node1" class="node">
<title>BookingListComponent</title>
<polygon fill="#ffffb3" stroke="black" points="373.84,-84.8 222.16,-84.8 222.16,-48.8 373.84,-48.8 373.84,-84.8"/>
<text text-anchor="middle" x="298" y="-62.6" font-family="Times,serif" font-size="14.00">BookingListComponent</text>
</g>
<!-- BookingListModule -->
<g id="node2" class="node">
<title>BookingListModule</title>
<polygon fill="#8dd3c7" stroke="black" points="268.56,-149.8 265.56,-153.8 244.56,-153.8 241.56,-149.8 139.44,-149.8 139.44,-113.8 268.56,-113.8 268.56,-149.8"/>
<text text-anchor="middle" x="204" y="-127.6" font-family="Times,serif" font-size="14.00">BookingListModule</text>
</g>
<!-- BookingListComponent&#45;&gt;BookingListModule -->
<g id="edge1" class="edge">
<title>BookingListComponent&#45;&gt;BookingListModule</title>
<path fill="none" stroke="black" d="M245.56,-84.91C245.56,-84.91 245.56,-103.79 245.56,-103.79"/>
<polygon fill="black" stroke="black" points="242.06,-103.79 245.56,-113.79 249.06,-103.79 242.06,-103.79"/>
</g>
<!-- BookingListRoutingModule -->
<g id="node3" class="node">
<title>BookingListRoutingModule</title>
<polygon fill="#8dd3c7" stroke="black" points="198.18,-84.8 195.18,-88.8 174.18,-88.8 171.18,-84.8 23.82,-84.8 23.82,-48.8 198.18,-48.8 198.18,-84.8"/>
<text text-anchor="middle" x="111" y="-62.6" font-family="Times,serif" font-size="14.00">BookingListRoutingModule</text>
</g>
<!-- BookingListRoutingModule&#45;&gt;BookingListModule -->
<g id="edge2" class="edge">
<title>BookingListRoutingModule&#45;&gt;BookingListModule</title>
<path fill="none" stroke="black" d="M168.78,-84.91C168.78,-84.91 168.78,-103.79 168.78,-103.79"/>
<polygon fill="black" stroke="black" points="165.28,-103.79 168.78,-113.79 172.28,-103.79 165.28,-103.79"/>
</g>
</g>
</svg>
