<?xml version="1.0" encoding="UTF-8" standalone="no"?>
<!DOCTYPE svg PUBLIC "-//W3C//DTD SVG 1.1//EN"
 "http://www.w3.org/Graphics/SVG/1.1/DTD/svg11.dtd">
<!-- Generated by graphviz version 5.0.0 (20220707.1540)
 -->
<!-- Title: dependencies Pages: 1 -->
<svg width="322pt" height="174pt"
 viewBox="0.00 0.00 322.00 173.80" xmlns="http://www.w3.org/2000/svg" xmlns:xlink="http://www.w3.org/1999/xlink">
<g id="graph0" class="graph" transform="scale(1 1) rotate(0) translate(4 169.8)">
<title>dependencies</title>
<polygon fill="white" stroke="transparent" points="-4,4 -4,-169.8 318,-169.8 318,4 -4,4"/>
<text text-anchor="middle" x="157" y="-8.2" font-family="sans-serif" font-size="14.00">dependencies</text>
<g id="clust1" class="cluster">
<title>cluster_LogsModule</title>
<polygon fill="none" stroke="black" stroke-dasharray="1,5" points="8,-32.8 8,-157.8 306,-157.8 306,-32.8 8,-32.8"/>
</g>
<g id="clust2" class="cluster">
<title>cluster_LogsModule_declarations</title>
<polygon fill="none" stroke="black" points="172,-40.8 172,-92.8 298,-92.8 298,-40.8 172,-40.8"/>
</g>
<g id="clust4" class="cluster">
<title>cluster_LogsModule_imports</title>
<polygon fill="none" stroke="black" points="16,-40.8 16,-92.8 164,-92.8 164,-40.8 16,-40.8"/>
</g>
<!-- LogsComponent -->
<g id="node1" class="node">
<title>LogsComponent</title>
<polygon fill="#ffffb3" stroke="black" points="289.83,-84.8 180.17,-84.8 180.17,-48.8 289.83,-48.8 289.83,-84.8"/>
<text text-anchor="middle" x="235" y="-62.6" font-family="Times,serif" font-size="14.00">LogsComponent</text>
</g>
<!-- LogsModule -->
<g id="node2" class="node">
<title>LogsModule</title>
<polygon fill="#8dd3c7" stroke="black" points="205.55,-149.8 202.55,-153.8 181.55,-153.8 178.55,-149.8 118.45,-149.8 118.45,-113.8 205.55,-113.8 205.55,-149.8"/>
<text text-anchor="middle" x="162" y="-127.6" font-family="Times,serif" font-size="14.00">LogsModule</text>
</g>
<!-- LogsComponent&#45;&gt;LogsModule -->
<g id="edge1" class="edge">
<title>LogsComponent&#45;&gt;LogsModule</title>
<path fill="none" stroke="black" d="M193.06,-84.91C193.06,-84.91 193.06,-103.79 193.06,-103.79"/>
<polygon fill="black" stroke="black" points="189.56,-103.79 193.06,-113.79 196.56,-103.79 189.56,-103.79"/>
</g>
<!-- LogsRoutingModule -->
<g id="node3" class="node">
<title>LogsRoutingModule</title>
<polygon fill="#8dd3c7" stroke="black" points="156.17,-84.8 153.17,-88.8 132.17,-88.8 129.17,-84.8 23.83,-84.8 23.83,-48.8 156.17,-48.8 156.17,-84.8"/>
<text text-anchor="middle" x="90" y="-62.6" font-family="Times,serif" font-size="14.00">LogsRoutingModule</text>
</g>
<!-- LogsRoutingModule&#45;&gt;LogsModule -->
<g id="edge2" class="edge">
<title>LogsRoutingModule&#45;&gt;LogsModule</title>
<path fill="none" stroke="black" d="M137.28,-84.91C137.28,-84.91 137.28,-103.79 137.28,-103.79"/>
<polygon fill="black" stroke="black" points="133.78,-103.79 137.28,-113.79 140.78,-103.79 133.78,-103.79"/>
</g>
</g>
</svg>
