<?xml version="1.0" encoding="UTF-8" standalone="no"?>
<!DOCTYPE svg PUBLIC "-//W3C//DTD SVG 1.1//EN"
 "http://www.w3.org/Graphics/SVG/1.1/DTD/svg11.dtd">
<!-- Generated by graphviz version 5.0.0 (20220707.1540)
 -->
<!-- Title: dependencies Pages: 1 -->
<svg width="322pt" height="174pt"
 viewBox="0.00 0.00 322.00 173.80" xmlns="http://www.w3.org/2000/svg" xmlns:xlink="http://www.w3.org/1999/xlink">
<g id="graph0" class="graph" transform="scale(1 1) rotate(0) translate(4 169.8)">
<title>dependencies</title>
<polygon fill="white" stroke="transparent" points="-4,4 -4,-169.8 318,-169.8 318,4 -4,4"/>
<text text-anchor="middle" x="157" y="-8.2" font-family="sans-serif" font-size="14.00">dependencies</text>
<g id="clust1" class="cluster">
<title>cluster_LogsModule</title>
<polygon fill="none" stroke="black" stroke-dasharray="1,5" points="8,-32.8 8,-157.8 306,-157.8 306,-32.8 8,-32.8"/>
</g>
<g id="clust4" class="cluster">
<title>cluster_LogsModule_imports</title>
<polygon fill="none" stroke="black" points="150,-40.8 150,-92.8 298,-92.8 298,-40.8 150,-40.8"/>
</g>
<g id="clust2" class="cluster">
<title>cluster_LogsModule_declarations</title>
<polygon fill="none" stroke="black" points="16,-40.8 16,-92.8 142,-92.8 142,-40.8 16,-40.8"/>
</g>
<!-- LogsComponent -->
<g id="node1" class="node">
<title>LogsComponent</title>
<polygon fill="#ffffb3" stroke="black" points="133.83,-84.8 24.17,-84.8 24.17,-48.8 133.83,-48.8 133.83,-84.8"/>
<text text-anchor="middle" x="79" y="-62.6" font-family="Times,serif" font-size="14.00">LogsComponent</text>
</g>
<!-- LogsModule -->
<g id="node2" class="node">
<title>LogsModule</title>
<polygon fill="#8dd3c7" stroke="black" points="194.55,-149.8 191.55,-153.8 170.55,-153.8 167.55,-149.8 107.45,-149.8 107.45,-113.8 194.55,-113.8 194.55,-149.8"/>
<text text-anchor="middle" x="151" y="-127.6" font-family="Times,serif" font-size="14.00">LogsModule</text>
</g>
<!-- LogsComponent&#45;&gt;LogsModule -->
<g id="edge1" class="edge">
<title>LogsComponent&#45;&gt;LogsModule</title>
<path fill="none" stroke="black" d="M120.44,-84.91C120.44,-84.91 120.44,-103.79 120.44,-103.79"/>
<polygon fill="black" stroke="black" points="116.94,-103.79 120.44,-113.79 123.94,-103.79 116.94,-103.79"/>
</g>
<!-- LogsRoutingModule -->
<g id="node3" class="node">
<title>LogsRoutingModule</title>
<polygon fill="#8dd3c7" stroke="black" points="290.17,-84.8 287.17,-88.8 266.17,-88.8 263.17,-84.8 157.83,-84.8 157.83,-48.8 290.17,-48.8 290.17,-84.8"/>
<text text-anchor="middle" x="224" y="-62.6" font-family="Times,serif" font-size="14.00">LogsRoutingModule</text>
</g>
<!-- LogsRoutingModule&#45;&gt;LogsModule -->
<g id="edge2" class="edge">
<title>LogsRoutingModule&#45;&gt;LogsModule</title>
<path fill="none" stroke="black" d="M176.22,-84.91C176.22,-84.91 176.22,-103.79 176.22,-103.79"/>
<polygon fill="black" stroke="black" points="172.72,-103.79 176.22,-113.79 179.72,-103.79 172.72,-103.79"/>
</g>
</g>
</svg>
