<?xml version="1.0" encoding="UTF-8" standalone="no"?>
<!DOCTYPE svg PUBLIC "-//W3C//DTD SVG 1.1//EN"
 "http://www.w3.org/Graphics/SVG/1.1/DTD/svg11.dtd">
<!-- Generated by graphviz version 5.0.0 (20220707.1540)
 -->
<!-- Title: dependencies Pages: 1 -->
<svg width="348pt" height="174pt"
 viewBox="0.00 0.00 348.00 173.80" xmlns="http://www.w3.org/2000/svg" xmlns:xlink="http://www.w3.org/1999/xlink">
<g id="graph0" class="graph" transform="scale(1 1) rotate(0) translate(4 169.8)">
<title>dependencies</title>
<polygon fill="white" stroke="transparent" points="-4,4 -4,-169.8 344,-169.8 344,4 -4,4"/>
<text text-anchor="middle" x="170" y="-8.2" font-family="sans-serif" font-size="14.00">dependencies</text>
<g id="clust1" class="cluster">
<title>cluster_InquiryModule</title>
<polygon fill="none" stroke="black" stroke-dasharray="1,5" points="8,-32.8 8,-157.8 332,-157.8 332,-32.8 8,-32.8"/>
</g>
<g id="clust2" class="cluster">
<title>cluster_InquiryModule_declarations</title>
<polygon fill="none" stroke="black" points="186,-40.8 186,-92.8 324,-92.8 324,-40.8 186,-40.8"/>
</g>
<g id="clust4" class="cluster">
<title>cluster_InquiryModule_imports</title>
<polygon fill="none" stroke="black" points="16,-40.8 16,-92.8 178,-92.8 178,-40.8 16,-40.8"/>
</g>
<!-- InquiryComponent -->
<g id="node1" class="node">
<title>InquiryComponent</title>
<polygon fill="#ffffb3" stroke="black" points="316.05,-84.8 193.95,-84.8 193.95,-48.8 316.05,-48.8 316.05,-84.8"/>
<text text-anchor="middle" x="255" y="-62.6" font-family="Times,serif" font-size="14.00">InquiryComponent</text>
</g>
<!-- InquiryModule -->
<g id="node2" class="node">
<title>InquiryModule</title>
<polygon fill="#8dd3c7" stroke="black" points="226.27,-149.8 223.27,-153.8 202.27,-153.8 199.27,-149.8 125.73,-149.8 125.73,-113.8 226.27,-113.8 226.27,-149.8"/>
<text text-anchor="middle" x="176" y="-127.6" font-family="Times,serif" font-size="14.00">InquiryModule</text>
</g>
<!-- InquiryComponent&#45;&gt;InquiryModule -->
<g id="edge1" class="edge">
<title>InquiryComponent&#45;&gt;InquiryModule</title>
<path fill="none" stroke="black" d="M210.06,-84.91C210.06,-84.91 210.06,-103.79 210.06,-103.79"/>
<polygon fill="black" stroke="black" points="206.56,-103.79 210.06,-113.79 213.56,-103.79 206.56,-103.79"/>
</g>
<!-- InquiryRoutingModule -->
<g id="node3" class="node">
<title>InquiryRoutingModule</title>
<polygon fill="#8dd3c7" stroke="black" points="169.88,-84.8 166.88,-88.8 145.88,-88.8 142.88,-84.8 24.12,-84.8 24.12,-48.8 169.88,-48.8 169.88,-84.8"/>
<text text-anchor="middle" x="97" y="-62.6" font-family="Times,serif" font-size="14.00">InquiryRoutingModule</text>
</g>
<!-- InquiryRoutingModule&#45;&gt;InquiryModule -->
<g id="edge2" class="edge">
<title>InquiryRoutingModule&#45;&gt;InquiryModule</title>
<path fill="none" stroke="black" d="M147.78,-84.91C147.78,-84.91 147.78,-103.79 147.78,-103.79"/>
<polygon fill="black" stroke="black" points="144.28,-103.79 147.78,-113.79 151.28,-103.79 144.28,-103.79"/>
</g>
</g>
</svg>
