<?xml version="1.0" encoding="UTF-8" standalone="no"?>
<!DOCTYPE svg PUBLIC "-//W3C//DTD SVG 1.1//EN"
 "http://www.w3.org/Graphics/SVG/1.1/DTD/svg11.dtd">
<!-- Generated by graphviz version 5.0.0 (20220707.1540)
 -->
<!-- Title: dependencies Pages: 1 -->
<svg width="416pt" height="174pt"
 viewBox="0.00 0.00 416.00 173.80" xmlns="http://www.w3.org/2000/svg" xmlns:xlink="http://www.w3.org/1999/xlink">
<g id="graph0" class="graph" transform="scale(1 1) rotate(0) translate(4 169.8)">
<title>dependencies</title>
<polygon fill="white" stroke="transparent" points="-4,4 -4,-169.8 412,-169.8 412,4 -4,4"/>
<text text-anchor="middle" x="204" y="-8.2" font-family="sans-serif" font-size="14.00">dependencies</text>
<g id="clust1" class="cluster">
<title>cluster_MyQuotationModule</title>
<polygon fill="none" stroke="black" stroke-dasharray="1,5" points="8,-32.8 8,-157.8 400,-157.8 400,-32.8 8,-32.8"/>
</g>
<g id="clust2" class="cluster">
<title>cluster_MyQuotationModule_declarations</title>
<polygon fill="none" stroke="black" points="220,-40.8 220,-92.8 392,-92.8 392,-40.8 220,-40.8"/>
</g>
<g id="clust4" class="cluster">
<title>cluster_MyQuotationModule_imports</title>
<polygon fill="none" stroke="black" points="16,-40.8 16,-92.8 212,-92.8 212,-40.8 16,-40.8"/>
</g>
<!-- MyQuotationComponent -->
<g id="node1" class="node">
<title>MyQuotationComponent</title>
<polygon fill="#ffffb3" stroke="black" points="384.27,-84.8 227.73,-84.8 227.73,-48.8 384.27,-48.8 384.27,-84.8"/>
<text text-anchor="middle" x="306" y="-62.6" font-family="Times,serif" font-size="14.00">MyQuotationComponent</text>
</g>
<!-- MyQuotationModule -->
<g id="node2" class="node">
<title>MyQuotationModule</title>
<polygon fill="#8dd3c7" stroke="black" points="277.49,-149.8 274.49,-153.8 253.49,-153.8 250.49,-149.8 142.51,-149.8 142.51,-113.8 277.49,-113.8 277.49,-149.8"/>
<text text-anchor="middle" x="210" y="-127.6" font-family="Times,serif" font-size="14.00">MyQuotationModule</text>
</g>
<!-- MyQuotationComponent&#45;&gt;MyQuotationModule -->
<g id="edge1" class="edge">
<title>MyQuotationComponent&#45;&gt;MyQuotationModule</title>
<path fill="none" stroke="black" d="M252.56,-84.91C252.56,-84.91 252.56,-103.79 252.56,-103.79"/>
<polygon fill="black" stroke="black" points="249.06,-103.79 252.56,-113.79 256.06,-103.79 249.06,-103.79"/>
</g>
<!-- MyQuotationRoutingModule -->
<g id="node3" class="node">
<title>MyQuotationRoutingModule</title>
<polygon fill="#8dd3c7" stroke="black" points="204.11,-84.8 201.11,-88.8 180.11,-88.8 177.11,-84.8 23.89,-84.8 23.89,-48.8 204.11,-48.8 204.11,-84.8"/>
<text text-anchor="middle" x="114" y="-62.6" font-family="Times,serif" font-size="14.00">MyQuotationRoutingModule</text>
</g>
<!-- MyQuotationRoutingModule&#45;&gt;MyQuotationModule -->
<g id="edge2" class="edge">
<title>MyQuotationRoutingModule&#45;&gt;MyQuotationModule</title>
<path fill="none" stroke="black" d="M173.28,-84.91C173.28,-84.91 173.28,-103.79 173.28,-103.79"/>
<polygon fill="black" stroke="black" points="169.78,-103.79 173.28,-113.79 176.78,-103.79 169.78,-103.79"/>
</g>
</g>
</svg>
