<?xml version="1.0" encoding="UTF-8" standalone="no"?>
<!DOCTYPE svg PUBLIC "-//W3C//DTD SVG 1.1//EN"
 "http://www.w3.org/Graphics/SVG/1.1/DTD/svg11.dtd">
<!-- Generated by graphviz version 5.0.0 (20220707.1540)
 -->
<!-- Title: dependencies Pages: 1 -->
<svg width="416pt" height="174pt"
 viewBox="0.00 0.00 416.00 173.80" xmlns="http://www.w3.org/2000/svg" xmlns:xlink="http://www.w3.org/1999/xlink">
<g id="graph0" class="graph" transform="scale(1 1) rotate(0) translate(4 169.8)">
<title>dependencies</title>
<polygon fill="white" stroke="transparent" points="-4,4 -4,-169.8 412,-169.8 412,4 -4,4"/>
<text text-anchor="middle" x="204" y="-8.2" font-family="sans-serif" font-size="14.00">dependencies</text>
<g id="clust1" class="cluster">
<title>cluster_MyQuotationModule</title>
<polygon fill="none" stroke="black" stroke-dasharray="1,5" points="8,-32.8 8,-157.8 400,-157.8 400,-32.8 8,-32.8"/>
</g>
<g id="clust4" class="cluster">
<title>cluster_MyQuotationModule_imports</title>
<polygon fill="none" stroke="black" points="196,-40.8 196,-92.8 392,-92.8 392,-40.8 196,-40.8"/>
</g>
<g id="clust2" class="cluster">
<title>cluster_MyQuotationModule_declarations</title>
<polygon fill="none" stroke="black" points="16,-40.8 16,-92.8 188,-92.8 188,-40.8 16,-40.8"/>
</g>
<!-- MyQuotationComponent -->
<g id="node1" class="node">
<title>MyQuotationComponent</title>
<polygon fill="#ffffb3" stroke="black" points="180.27,-84.8 23.73,-84.8 23.73,-48.8 180.27,-48.8 180.27,-84.8"/>
<text text-anchor="middle" x="102" y="-62.6" font-family="Times,serif" font-size="14.00">MyQuotationComponent</text>
</g>
<!-- MyQuotationModule -->
<g id="node2" class="node">
<title>MyQuotationModule</title>
<polygon fill="#8dd3c7" stroke="black" points="265.49,-149.8 262.49,-153.8 241.49,-153.8 238.49,-149.8 130.51,-149.8 130.51,-113.8 265.49,-113.8 265.49,-149.8"/>
<text text-anchor="middle" x="198" y="-127.6" font-family="Times,serif" font-size="14.00">MyQuotationModule</text>
</g>
<!-- MyQuotationComponent&#45;&gt;MyQuotationModule -->
<g id="edge1" class="edge">
<title>MyQuotationComponent&#45;&gt;MyQuotationModule</title>
<path fill="none" stroke="black" d="M155.44,-84.91C155.44,-84.91 155.44,-103.79 155.44,-103.79"/>
<polygon fill="black" stroke="black" points="151.94,-103.79 155.44,-113.79 158.94,-103.79 151.94,-103.79"/>
</g>
<!-- MyQuotationRoutingModule -->
<g id="node3" class="node">
<title>MyQuotationRoutingModule</title>
<polygon fill="#8dd3c7" stroke="black" points="384.11,-84.8 381.11,-88.8 360.11,-88.8 357.11,-84.8 203.89,-84.8 203.89,-48.8 384.11,-48.8 384.11,-84.8"/>
<text text-anchor="middle" x="294" y="-62.6" font-family="Times,serif" font-size="14.00">MyQuotationRoutingModule</text>
</g>
<!-- MyQuotationRoutingModule&#45;&gt;MyQuotationModule -->
<g id="edge2" class="edge">
<title>MyQuotationRoutingModule&#45;&gt;MyQuotationModule</title>
<path fill="none" stroke="black" d="M234.72,-84.91C234.72,-84.91 234.72,-103.79 234.72,-103.79"/>
<polygon fill="black" stroke="black" points="231.22,-103.79 234.72,-113.79 238.22,-103.79 231.22,-103.79"/>
</g>
</g>
</svg>
