<?xml version="1.0" encoding="UTF-8" standalone="no"?>
<!DOCTYPE svg PUBLIC "-//W3C//DTD SVG 1.1//EN"
 "http://www.w3.org/Graphics/SVG/1.1/DTD/svg11.dtd">
<!-- Generated by graphviz version 5.0.0 (20220707.1540)
 -->
<!-- Title: dependencies Pages: 1 -->
<svg width="414pt" height="174pt"
 viewBox="0.00 0.00 414.00 173.80" xmlns="http://www.w3.org/2000/svg" xmlns:xlink="http://www.w3.org/1999/xlink">
<g id="graph0" class="graph" transform="scale(1 1) rotate(0) translate(4 169.8)">
<title>dependencies</title>
<polygon fill="white" stroke="transparent" points="-4,4 -4,-169.8 410,-169.8 410,4 -4,4"/>
<text text-anchor="middle" x="203" y="-8.2" font-family="sans-serif" font-size="14.00">dependencies</text>
<g id="clust1" class="cluster">
<title>cluster_MyCustomerModule</title>
<polygon fill="none" stroke="black" stroke-dasharray="1,5" points="8,-32.8 8,-157.8 398,-157.8 398,-32.8 8,-32.8"/>
</g>
<g id="clust4" class="cluster">
<title>cluster_MyCustomerModule_imports</title>
<polygon fill="none" stroke="black" points="196,-40.8 196,-92.8 390,-92.8 390,-40.8 196,-40.8"/>
</g>
<g id="clust2" class="cluster">
<title>cluster_MyCustomerModule_declarations</title>
<polygon fill="none" stroke="black" points="16,-40.8 16,-92.8 188,-92.8 188,-40.8 16,-40.8"/>
</g>
<!-- MyCustomerComponent -->
<g id="node1" class="node">
<title>MyCustomerComponent</title>
<polygon fill="#ffffb3" stroke="black" points="179.72,-84.8 24.28,-84.8 24.28,-48.8 179.72,-48.8 179.72,-84.8"/>
<text text-anchor="middle" x="102" y="-62.6" font-family="Times,serif" font-size="14.00">MyCustomerComponent</text>
</g>
<!-- MyCustomerModule -->
<g id="node2" class="node">
<title>MyCustomerModule</title>
<polygon fill="#8dd3c7" stroke="black" points="263.94,-149.8 260.94,-153.8 239.94,-153.8 236.94,-149.8 130.06,-149.8 130.06,-113.8 263.94,-113.8 263.94,-149.8"/>
<text text-anchor="middle" x="197" y="-127.6" font-family="Times,serif" font-size="14.00">MyCustomerModule</text>
</g>
<!-- MyCustomerComponent&#45;&gt;MyCustomerModule -->
<g id="edge1" class="edge">
<title>MyCustomerComponent&#45;&gt;MyCustomerModule</title>
<path fill="none" stroke="black" d="M154.94,-84.91C154.94,-84.91 154.94,-103.79 154.94,-103.79"/>
<polygon fill="black" stroke="black" points="151.44,-103.79 154.94,-113.79 158.44,-103.79 151.44,-103.79"/>
</g>
<!-- MyCustomerRoutingModule -->
<g id="node3" class="node">
<title>MyCustomerRoutingModule</title>
<polygon fill="#8dd3c7" stroke="black" points="382.06,-84.8 379.06,-88.8 358.06,-88.8 355.06,-84.8 203.94,-84.8 203.94,-48.8 382.06,-48.8 382.06,-84.8"/>
<text text-anchor="middle" x="293" y="-62.6" font-family="Times,serif" font-size="14.00">MyCustomerRoutingModule</text>
</g>
<!-- MyCustomerRoutingModule&#45;&gt;MyCustomerModule -->
<g id="edge2" class="edge">
<title>MyCustomerRoutingModule&#45;&gt;MyCustomerModule</title>
<path fill="none" stroke="black" d="M233.72,-84.91C233.72,-84.91 233.72,-103.79 233.72,-103.79"/>
<polygon fill="black" stroke="black" points="230.22,-103.79 233.72,-113.79 237.22,-103.79 230.22,-103.79"/>
</g>
</g>
</svg>
