<?xml version="1.0" encoding="UTF-8" standalone="no"?>
<!DOCTYPE svg PUBLIC "-//W3C//DTD SVG 1.1//EN"
 "http://www.w3.org/Graphics/SVG/1.1/DTD/svg11.dtd">
<!-- Generated by graphviz version 5.0.0 (20220707.1540)
 -->
<!-- Title: dependencies Pages: 1 -->
<svg width="422pt" height="174pt"
 viewBox="0.00 0.00 422.00 173.80" xmlns="http://www.w3.org/2000/svg" xmlns:xlink="http://www.w3.org/1999/xlink">
<g id="graph0" class="graph" transform="scale(1 1) rotate(0) translate(4 169.8)">
<title>dependencies</title>
<polygon fill="white" stroke="transparent" points="-4,4 -4,-169.8 418,-169.8 418,4 -4,4"/>
<text text-anchor="middle" x="207" y="-8.2" font-family="sans-serif" font-size="14.00">dependencies</text>
<g id="clust1" class="cluster">
<title>cluster_QuotationListModule</title>
<polygon fill="none" stroke="black" stroke-dasharray="1,5" points="8,-32.8 8,-157.8 406,-157.8 406,-32.8 8,-32.8"/>
</g>
<g id="clust4" class="cluster">
<title>cluster_QuotationListModule_imports</title>
<polygon fill="none" stroke="black" points="200,-40.8 200,-92.8 398,-92.8 398,-40.8 200,-40.8"/>
</g>
<g id="clust2" class="cluster">
<title>cluster_QuotationListModule_declarations</title>
<polygon fill="none" stroke="black" points="16,-40.8 16,-92.8 192,-92.8 192,-40.8 16,-40.8"/>
</g>
<!-- QuotationListComponent -->
<g id="node1" class="node">
<title>QuotationListComponent</title>
<polygon fill="#ffffb3" stroke="black" points="183.6,-84.8 24.4,-84.8 24.4,-48.8 183.6,-48.8 183.6,-84.8"/>
<text text-anchor="middle" x="104" y="-62.6" font-family="Times,serif" font-size="14.00">QuotationListComponent</text>
</g>
<!-- QuotationListModule -->
<g id="node2" class="node">
<title>QuotationListModule</title>
<polygon fill="#8dd3c7" stroke="black" points="269.82,-149.8 266.82,-153.8 245.82,-153.8 242.82,-149.8 132.18,-149.8 132.18,-113.8 269.82,-113.8 269.82,-149.8"/>
<text text-anchor="middle" x="201" y="-127.6" font-family="Times,serif" font-size="14.00">QuotationListModule</text>
</g>
<!-- QuotationListComponent&#45;&gt;QuotationListModule -->
<g id="edge1" class="edge">
<title>QuotationListComponent&#45;&gt;QuotationListModule</title>
<path fill="none" stroke="black" d="M157.94,-84.91C157.94,-84.91 157.94,-103.79 157.94,-103.79"/>
<polygon fill="black" stroke="black" points="154.44,-103.79 157.94,-113.79 161.44,-103.79 154.44,-103.79"/>
</g>
<!-- QuotationListRoutingModule -->
<g id="node3" class="node">
<title>QuotationListRoutingModule</title>
<polygon fill="#8dd3c7" stroke="black" points="390.44,-84.8 387.44,-88.8 366.44,-88.8 363.44,-84.8 207.56,-84.8 207.56,-48.8 390.44,-48.8 390.44,-84.8"/>
<text text-anchor="middle" x="299" y="-62.6" font-family="Times,serif" font-size="14.00">QuotationListRoutingModule</text>
</g>
<!-- QuotationListRoutingModule&#45;&gt;QuotationListModule -->
<g id="edge2" class="edge">
<title>QuotationListRoutingModule&#45;&gt;QuotationListModule</title>
<path fill="none" stroke="black" d="M238.72,-84.91C238.72,-84.91 238.72,-103.79 238.72,-103.79"/>
<polygon fill="black" stroke="black" points="235.22,-103.79 238.72,-113.79 242.22,-103.79 235.22,-103.79"/>
</g>
</g>
</svg>
