<?xml version="1.0" encoding="UTF-8" standalone="no"?>
<!DOCTYPE svg PUBLIC "-//W3C//DTD SVG 1.1//EN"
 "http://www.w3.org/Graphics/SVG/1.1/DTD/svg11.dtd">
<!-- Generated by graphviz version 5.0.0 (20220707.1540)
 -->
<!-- Title: dependencies Pages: 1 -->
<svg width="432pt" height="174pt"
 viewBox="0.00 0.00 432.00 173.80" xmlns="http://www.w3.org/2000/svg" xmlns:xlink="http://www.w3.org/1999/xlink">
<g id="graph0" class="graph" transform="scale(1 1) rotate(0) translate(4 169.8)">
<title>dependencies</title>
<polygon fill="white" stroke="transparent" points="-4,4 -4,-169.8 428,-169.8 428,4 -4,4"/>
<text text-anchor="middle" x="212" y="-8.2" font-family="sans-serif" font-size="14.00">dependencies</text>
<g id="clust1" class="cluster">
<title>cluster_PurchaseOrderModule</title>
<polygon fill="none" stroke="black" stroke-dasharray="1,5" points="8,-32.8 8,-157.8 416,-157.8 416,-32.8 8,-32.8"/>
</g>
<g id="clust4" class="cluster">
<title>cluster_PurchaseOrderModule_imports</title>
<polygon fill="none" stroke="black" points="204,-40.8 204,-92.8 408,-92.8 408,-40.8 204,-40.8"/>
</g>
<g id="clust2" class="cluster">
<title>cluster_PurchaseOrderModule_declarations</title>
<polygon fill="none" stroke="black" points="16,-40.8 16,-92.8 196,-92.8 196,-40.8 16,-40.8"/>
</g>
<!-- PurchaseOrderComponent -->
<g id="node1" class="node">
<title>PurchaseOrderComponent</title>
<polygon fill="#ffffb3" stroke="black" points="188.02,-84.8 23.98,-84.8 23.98,-48.8 188.02,-48.8 188.02,-84.8"/>
<text text-anchor="middle" x="106" y="-62.6" font-family="Times,serif" font-size="14.00">PurchaseOrderComponent</text>
</g>
<!-- PurchaseOrderModule -->
<g id="node2" class="node">
<title>PurchaseOrderModule</title>
<polygon fill="#8dd3c7" stroke="black" points="277.24,-149.8 274.24,-153.8 253.24,-153.8 250.24,-149.8 134.76,-149.8 134.76,-113.8 277.24,-113.8 277.24,-149.8"/>
<text text-anchor="middle" x="206" y="-127.6" font-family="Times,serif" font-size="14.00">PurchaseOrderModule</text>
</g>
<!-- PurchaseOrderComponent&#45;&gt;PurchaseOrderModule -->
<g id="edge1" class="edge">
<title>PurchaseOrderComponent&#45;&gt;PurchaseOrderModule</title>
<path fill="none" stroke="black" d="M161.44,-84.91C161.44,-84.91 161.44,-103.79 161.44,-103.79"/>
<polygon fill="black" stroke="black" points="157.94,-103.79 161.44,-113.79 164.94,-103.79 157.94,-103.79"/>
</g>
<!-- PurchaseOrderRoutingModule -->
<g id="node3" class="node">
<title>PurchaseOrderRoutingModule</title>
<polygon fill="#8dd3c7" stroke="black" points="399.86,-84.8 396.86,-88.8 375.86,-88.8 372.86,-84.8 212.14,-84.8 212.14,-48.8 399.86,-48.8 399.86,-84.8"/>
<text text-anchor="middle" x="306" y="-62.6" font-family="Times,serif" font-size="14.00">PurchaseOrderRoutingModule</text>
</g>
<!-- PurchaseOrderRoutingModule&#45;&gt;PurchaseOrderModule -->
<g id="edge2" class="edge">
<title>PurchaseOrderRoutingModule&#45;&gt;PurchaseOrderModule</title>
<path fill="none" stroke="black" d="M244.72,-84.91C244.72,-84.91 244.72,-103.79 244.72,-103.79"/>
<polygon fill="black" stroke="black" points="241.22,-103.79 244.72,-113.79 248.22,-103.79 241.22,-103.79"/>
</g>
</g>
</svg>
