<?xml version="1.0" encoding="UTF-8" standalone="no"?>
<!DOCTYPE svg PUBLIC "-//W3C//DTD SVG 1.1//EN"
 "http://www.w3.org/Graphics/SVG/1.1/DTD/svg11.dtd">
<!-- Generated by graphviz version 5.0.0 (20220707.1540)
 -->
<!-- Title: dependencies Pages: 1 -->
<svg width="404pt" height="174pt"
 viewBox="0.00 0.00 404.00 173.80" xmlns="http://www.w3.org/2000/svg" xmlns:xlink="http://www.w3.org/1999/xlink">
<g id="graph0" class="graph" transform="scale(1 1) rotate(0) translate(4 169.8)">
<title>dependencies</title>
<polygon fill="white" stroke="transparent" points="-4,4 -4,-169.8 400,-169.8 400,4 -4,4"/>
<text text-anchor="middle" x="198" y="-8.2" font-family="sans-serif" font-size="14.00">dependencies</text>
<g id="clust1" class="cluster">
<title>cluster_KeyPartnersModule</title>
<polygon fill="none" stroke="black" stroke-dasharray="1,5" points="8,-32.8 8,-157.8 388,-157.8 388,-32.8 8,-32.8"/>
</g>
<g id="clust2" class="cluster">
<title>cluster_KeyPartnersModule_declarations</title>
<polygon fill="none" stroke="black" points="214,-40.8 214,-92.8 380,-92.8 380,-40.8 214,-40.8"/>
</g>
<g id="clust4" class="cluster">
<title>cluster_KeyPartnersModule_imports</title>
<polygon fill="none" stroke="black" points="16,-40.8 16,-92.8 206,-92.8 206,-40.8 16,-40.8"/>
</g>
<!-- KeyPartnersComponent -->
<g id="node1" class="node">
<title>KeyPartnersComponent</title>
<polygon fill="#ffffb3" stroke="black" points="372.03,-84.8 221.97,-84.8 221.97,-48.8 372.03,-48.8 372.03,-84.8"/>
<text text-anchor="middle" x="297" y="-62.6" font-family="Times,serif" font-size="14.00">KeyPartnersComponent</text>
</g>
<!-- KeyPartnersModule -->
<g id="node2" class="node">
<title>KeyPartnersModule</title>
<polygon fill="#8dd3c7" stroke="black" points="268.25,-149.8 265.25,-153.8 244.25,-153.8 241.25,-149.8 139.75,-149.8 139.75,-113.8 268.25,-113.8 268.25,-149.8"/>
<text text-anchor="middle" x="204" y="-127.6" font-family="Times,serif" font-size="14.00">KeyPartnersModule</text>
</g>
<!-- KeyPartnersComponent&#45;&gt;KeyPartnersModule -->
<g id="edge1" class="edge">
<title>KeyPartnersComponent&#45;&gt;KeyPartnersModule</title>
<path fill="none" stroke="black" d="M245.06,-84.91C245.06,-84.91 245.06,-103.79 245.06,-103.79"/>
<polygon fill="black" stroke="black" points="241.56,-103.79 245.06,-113.79 248.56,-103.79 241.56,-103.79"/>
</g>
<!-- KeyPartnersRoutingModule -->
<g id="node3" class="node">
<title>KeyPartnersRoutingModule</title>
<polygon fill="#8dd3c7" stroke="black" points="197.87,-84.8 194.87,-88.8 173.87,-88.8 170.87,-84.8 24.13,-84.8 24.13,-48.8 197.87,-48.8 197.87,-84.8"/>
<text text-anchor="middle" x="111" y="-62.6" font-family="Times,serif" font-size="14.00">KeyPartnersRoutingModule</text>
</g>
<!-- KeyPartnersRoutingModule&#45;&gt;KeyPartnersModule -->
<g id="edge2" class="edge">
<title>KeyPartnersRoutingModule&#45;&gt;KeyPartnersModule</title>
<path fill="none" stroke="black" d="M168.78,-84.91C168.78,-84.91 168.78,-103.79 168.78,-103.79"/>
<polygon fill="black" stroke="black" points="165.28,-103.79 168.78,-113.79 172.28,-103.79 165.28,-103.79"/>
</g>
</g>
</svg>
