<?xml version="1.0" encoding="UTF-8" standalone="no"?>
<!DOCTYPE svg PUBLIC "-//W3C//DTD SVG 1.1//EN"
 "http://www.w3.org/Graphics/SVG/1.1/DTD/svg11.dtd">
<!-- Generated by graphviz version 5.0.0 (20220707.1540)
 -->
<!-- Title: dependencies Pages: 1 -->
<svg width="392pt" height="174pt"
 viewBox="0.00 0.00 392.00 173.80" xmlns="http://www.w3.org/2000/svg" xmlns:xlink="http://www.w3.org/1999/xlink">
<g id="graph0" class="graph" transform="scale(1 1) rotate(0) translate(4 169.8)">
<title>dependencies</title>
<polygon fill="white" stroke="transparent" points="-4,4 -4,-169.8 388,-169.8 388,4 -4,4"/>
<text text-anchor="middle" x="192" y="-8.2" font-family="sans-serif" font-size="14.00">dependencies</text>
<g id="clust1" class="cluster">
<title>cluster_InquiryListModule</title>
<polygon fill="none" stroke="black" stroke-dasharray="1,5" points="8,-32.8 8,-157.8 376,-157.8 376,-32.8 8,-32.8"/>
</g>
<g id="clust4" class="cluster">
<title>cluster_InquiryListModule_imports</title>
<polygon fill="none" stroke="black" points="184,-40.8 184,-92.8 368,-92.8 368,-40.8 184,-40.8"/>
</g>
<g id="clust2" class="cluster">
<title>cluster_InquiryListModule_declarations</title>
<polygon fill="none" stroke="black" points="16,-40.8 16,-92.8 176,-92.8 176,-40.8 16,-40.8"/>
</g>
<!-- InquiryListComponent -->
<g id="node1" class="node">
<title>InquiryListComponent</title>
<polygon fill="#ffffb3" stroke="black" points="168.32,-84.8 23.68,-84.8 23.68,-48.8 168.32,-48.8 168.32,-84.8"/>
<text text-anchor="middle" x="96" y="-62.6" font-family="Times,serif" font-size="14.00">InquiryListComponent</text>
</g>
<!-- InquiryListModule -->
<g id="node2" class="node">
<title>InquiryListModule</title>
<polygon fill="#8dd3c7" stroke="black" points="247.05,-149.8 244.05,-153.8 223.05,-153.8 220.05,-149.8 124.95,-149.8 124.95,-113.8 247.05,-113.8 247.05,-149.8"/>
<text text-anchor="middle" x="186" y="-127.6" font-family="Times,serif" font-size="14.00">InquiryListModule</text>
</g>
<!-- InquiryListComponent&#45;&gt;InquiryListModule -->
<g id="edge1" class="edge">
<title>InquiryListComponent&#45;&gt;InquiryListModule</title>
<path fill="none" stroke="black" d="M146.44,-84.91C146.44,-84.91 146.44,-103.79 146.44,-103.79"/>
<polygon fill="black" stroke="black" points="142.94,-103.79 146.44,-113.79 149.94,-103.79 142.94,-103.79"/>
</g>
<!-- InquiryListRoutingModule -->
<g id="node3" class="node">
<title>InquiryListRoutingModule</title>
<polygon fill="#8dd3c7" stroke="black" points="359.66,-84.8 356.66,-88.8 335.66,-88.8 332.66,-84.8 192.34,-84.8 192.34,-48.8 359.66,-48.8 359.66,-84.8"/>
<text text-anchor="middle" x="276" y="-62.6" font-family="Times,serif" font-size="14.00">InquiryListRoutingModule</text>
</g>
<!-- InquiryListRoutingModule&#45;&gt;InquiryListModule -->
<g id="edge2" class="edge">
<title>InquiryListRoutingModule&#45;&gt;InquiryListModule</title>
<path fill="none" stroke="black" d="M219.72,-84.91C219.72,-84.91 219.72,-103.79 219.72,-103.79"/>
<polygon fill="black" stroke="black" points="216.22,-103.79 219.72,-113.79 223.22,-103.79 216.22,-103.79"/>
</g>
</g>
</svg>
