<?xml version="1.0" encoding="UTF-8" standalone="no"?>
<!DOCTYPE svg PUBLIC "-//W3C//DTD SVG 1.1//EN"
 "http://www.w3.org/Graphics/SVG/1.1/DTD/svg11.dtd">
<!-- Generated by graphviz version 5.0.0 (20220707.1540)
 -->
<!-- Title: dependencies Pages: 1 -->
<svg width="564pt" height="247pt"
 viewBox="0.00 0.00 564.00 246.80" xmlns="http://www.w3.org/2000/svg" xmlns:xlink="http://www.w3.org/1999/xlink">
<g id="graph0" class="graph" transform="scale(1 1) rotate(0) translate(4 242.8)">
<title>dependencies</title>
<polygon fill="white" stroke="transparent" points="-4,4 -4,-242.8 560,-242.8 560,4 -4,4"/>
<text text-anchor="middle" x="278" y="-8.2" font-family="sans-serif" font-size="14.00">dependencies</text>
<g id="clust1" class="cluster">
<title>cluster_AppModule</title>
<polygon fill="none" stroke="black" stroke-dasharray="1,5" points="8,-32.8 8,-230.8 548,-230.8 548,-32.8 8,-32.8"/>
</g>
<g id="clust2" class="cluster">
<title>cluster_AppModule_declarations</title>
<polygon fill="none" stroke="black" points="418,-40.8 418,-92.8 540,-92.8 540,-40.8 418,-40.8"/>
</g>
<g id="clust4" class="cluster">
<title>cluster_AppModule_imports</title>
<polygon fill="none" stroke="black" points="266,-40.8 266,-92.8 410,-92.8 410,-40.8 266,-40.8"/>
</g>
<g id="clust6" class="cluster">
<title>cluster_AppModule_bootstrap</title>
<polygon fill="none" stroke="black" points="276,-170.8 276,-222.8 400,-222.8 400,-170.8 276,-170.8"/>
</g>
<g id="clust7" class="cluster">
<title>cluster_AppModule_providers</title>
<polygon fill="none" stroke="black" points="16,-40.8 16,-92.8 258,-92.8 258,-40.8 16,-40.8"/>
</g>
<!-- AppComponent -->
<g id="node1" class="node">
<title>AppComponent</title>
<polygon fill="#ffffb3" stroke="black" points="531.94,-84.8 426.06,-84.8 426.06,-48.8 531.94,-48.8 531.94,-84.8"/>
<text text-anchor="middle" x="479" y="-62.6" font-family="Times,serif" font-size="14.00">AppComponent</text>
</g>
<!-- AppModule -->
<g id="node2" class="node">
<title>AppModule</title>
<polygon fill="#8dd3c7" stroke="black" points="379.66,-149.8 376.66,-153.8 355.66,-153.8 352.66,-149.8 296.34,-149.8 296.34,-113.8 379.66,-113.8 379.66,-149.8"/>
<text text-anchor="middle" x="338" y="-127.6" font-family="Times,serif" font-size="14.00">AppModule</text>
</g>
<!-- AppComponent&#45;&gt;AppModule -->
<g id="edge1" class="edge">
<title>AppComponent&#45;&gt;AppModule</title>
<path fill="none" stroke="black" d="M479,-84.91C479,-104.14 479,-131.8 479,-131.8 479,-131.8 389.92,-131.8 389.92,-131.8"/>
<polygon fill="black" stroke="black" points="389.92,-128.3 379.92,-131.8 389.92,-135.3 389.92,-128.3"/>
</g>
<!-- AppComponent  -->
<g id="node4" class="node">
<title>AppComponent </title>
<polygon fill="#80b1d3" stroke="black" points="392.44,-214.8 283.56,-214.8 283.56,-178.8 392.44,-178.8 392.44,-214.8"/>
<text text-anchor="middle" x="338" y="-192.6" font-family="Times,serif" font-size="14.00">AppComponent </text>
</g>
<!-- AppModule&#45;&gt;AppComponent  -->
<g id="edge3" class="edge">
<title>AppModule&#45;&gt;AppComponent </title>
<path fill="none" stroke="black" stroke-dasharray="1,5" d="M338,-149.91C338,-149.91 338,-168.79 338,-168.79"/>
<polygon fill="black" stroke="black" points="334.5,-168.79 338,-178.79 341.5,-168.79 334.5,-168.79"/>
</g>
<!-- AppRoutingModule -->
<g id="node3" class="node">
<title>AppRoutingModule</title>
<polygon fill="#8dd3c7" stroke="black" points="402.28,-84.8 399.28,-88.8 378.28,-88.8 375.28,-84.8 273.72,-84.8 273.72,-48.8 402.28,-48.8 402.28,-84.8"/>
<text text-anchor="middle" x="338" y="-62.6" font-family="Times,serif" font-size="14.00">AppRoutingModule</text>
</g>
<!-- AppRoutingModule&#45;&gt;AppModule -->
<g id="edge2" class="edge">
<title>AppRoutingModule&#45;&gt;AppModule</title>
<path fill="none" stroke="black" d="M338,-84.91C338,-84.91 338,-103.79 338,-103.79"/>
<polygon fill="black" stroke="black" points="334.5,-103.79 338,-113.79 341.5,-103.79 334.5,-103.79"/>
</g>
<!-- HttpInterceptorInterceptor -->
<g id="node5" class="node">
<title>HttpInterceptorInterceptor</title>
<ellipse fill="#fdb462" stroke="black" cx="137" cy="-66.8" rx="112.84" ry="18"/>
<text text-anchor="middle" x="137" y="-62.6" font-family="Times,serif" font-size="14.00">HttpInterceptorInterceptor</text>
</g>
<!-- HttpInterceptorInterceptor&#45;&gt;AppModule -->
<g id="edge4" class="edge">
<title>HttpInterceptorInterceptor&#45;&gt;AppModule</title>
<path fill="none" stroke="black" d="M137,-84.91C137,-104.14 137,-131.8 137,-131.8 137,-131.8 285.86,-131.8 285.86,-131.8"/>
<polygon fill="black" stroke="black" points="285.86,-135.3 295.86,-131.8 285.86,-128.3 285.86,-135.3"/>
</g>
</g>
</svg>
