<?xml version="1.0" encoding="UTF-8" standalone="no"?>
<!DOCTYPE svg PUBLIC "-//W3C//DTD SVG 1.1//EN"
 "http://www.w3.org/Graphics/SVG/1.1/DTD/svg11.dtd">
<!-- Generated by graphviz version 5.0.0 (20220707.1540)
 -->
<!-- Title: dependencies Pages: 1 -->
<svg width="506pt" height="174pt"
 viewBox="0.00 0.00 506.00 173.80" xmlns="http://www.w3.org/2000/svg" xmlns:xlink="http://www.w3.org/1999/xlink">
<g id="graph0" class="graph" transform="scale(1 1) rotate(0) translate(4 169.8)">
<title>dependencies</title>
<polygon fill="white" stroke="transparent" points="-4,4 -4,-169.8 502,-169.8 502,4 -4,4"/>
<text text-anchor="middle" x="249" y="-8.2" font-family="sans-serif" font-size="14.00">dependencies</text>
<g id="clust1" class="cluster">
<title>cluster_CreatePurchaseOrderModule</title>
<polygon fill="none" stroke="black" stroke-dasharray="1,5" points="8,-32.8 8,-157.8 490,-157.8 490,-32.8 8,-32.8"/>
</g>
<g id="clust2" class="cluster">
<title>cluster_CreatePurchaseOrderModule_declarations</title>
<polygon fill="none" stroke="black" points="264,-40.8 264,-92.8 482,-92.8 482,-40.8 264,-40.8"/>
</g>
<g id="clust4" class="cluster">
<title>cluster_CreatePurchaseOrderModule_imports</title>
<polygon fill="none" stroke="black" points="16,-40.8 16,-92.8 256,-92.8 256,-40.8 16,-40.8"/>
</g>
<!-- CreatePurchaseOrderComponent -->
<g id="node1" class="node">
<title>CreatePurchaseOrderComponent</title>
<polygon fill="#ffffb3" stroke="black" points="473.55,-84.8 272.45,-84.8 272.45,-48.8 473.55,-48.8 473.55,-84.8"/>
<text text-anchor="middle" x="373" y="-62.6" font-family="Times,serif" font-size="14.00">CreatePurchaseOrderComponent</text>
</g>
<!-- CreatePurchaseOrderModule -->
<g id="node2" class="node">
<title>CreatePurchaseOrderModule</title>
<polygon fill="#8dd3c7" stroke="black" points="343.77,-149.8 340.77,-153.8 319.77,-153.8 316.77,-149.8 164.23,-149.8 164.23,-113.8 343.77,-113.8 343.77,-149.8"/>
<text text-anchor="middle" x="254" y="-127.6" font-family="Times,serif" font-size="14.00">CreatePurchaseOrderModule</text>
</g>
<!-- CreatePurchaseOrderComponent&#45;&gt;CreatePurchaseOrderModule -->
<g id="edge1" class="edge">
<title>CreatePurchaseOrderComponent&#45;&gt;CreatePurchaseOrderModule</title>
<path fill="none" stroke="black" d="M308.06,-84.91C308.06,-84.91 308.06,-103.79 308.06,-103.79"/>
<polygon fill="black" stroke="black" points="304.56,-103.79 308.06,-113.79 311.56,-103.79 304.56,-103.79"/>
</g>
<!-- CreatePurchaseOrderRoutingModule -->
<g id="node3" class="node">
<title>CreatePurchaseOrderRoutingModule</title>
<polygon fill="#8dd3c7" stroke="black" points="248.39,-84.8 245.39,-88.8 224.39,-88.8 221.39,-84.8 23.61,-84.8 23.61,-48.8 248.39,-48.8 248.39,-84.8"/>
<text text-anchor="middle" x="136" y="-62.6" font-family="Times,serif" font-size="14.00">CreatePurchaseOrderRoutingModule</text>
</g>
<!-- CreatePurchaseOrderRoutingModule&#45;&gt;CreatePurchaseOrderModule -->
<g id="edge2" class="edge">
<title>CreatePurchaseOrderRoutingModule&#45;&gt;CreatePurchaseOrderModule</title>
<path fill="none" stroke="black" d="M206.28,-84.91C206.28,-84.91 206.28,-103.79 206.28,-103.79"/>
<polygon fill="black" stroke="black" points="202.78,-103.79 206.28,-113.79 209.78,-103.79 202.78,-103.79"/>
</g>
</g>
</svg>
