<?xml version="1.0" encoding="UTF-8" standalone="no"?>
<!DOCTYPE svg PUBLIC "-//W3C//DTD SVG 1.1//EN"
 "http://www.w3.org/Graphics/SVG/1.1/DTD/svg11.dtd">
<!-- Generated by graphviz version 5.0.0 (20220707.1540)
 -->
<!-- Title: dependencies Pages: 1 -->
<svg width="448pt" height="174pt"
 viewBox="0.00 0.00 448.00 173.80" xmlns="http://www.w3.org/2000/svg" xmlns:xlink="http://www.w3.org/1999/xlink">
<g id="graph0" class="graph" transform="scale(1 1) rotate(0) translate(4 169.8)">
<title>dependencies</title>
<polygon fill="white" stroke="transparent" points="-4,4 -4,-169.8 444,-169.8 444,4 -4,4"/>
<text text-anchor="middle" x="220" y="-8.2" font-family="sans-serif" font-size="14.00">dependencies</text>
<g id="clust1" class="cluster">
<title>cluster_ForgotPasswordModule</title>
<polygon fill="none" stroke="black" stroke-dasharray="1,5" points="8,-32.8 8,-157.8 432,-157.8 432,-32.8 8,-32.8"/>
</g>
<g id="clust2" class="cluster">
<title>cluster_ForgotPasswordModule_declarations</title>
<polygon fill="none" stroke="black" points="236,-40.8 236,-92.8 424,-92.8 424,-40.8 236,-40.8"/>
</g>
<g id="clust4" class="cluster">
<title>cluster_ForgotPasswordModule_imports</title>
<polygon fill="none" stroke="black" points="16,-40.8 16,-92.8 228,-92.8 228,-40.8 16,-40.8"/>
</g>
<!-- ForgotPasswordComponent -->
<g id="node1" class="node">
<title>ForgotPasswordComponent</title>
<polygon fill="#ffffb3" stroke="black" points="416.34,-84.8 243.66,-84.8 243.66,-48.8 416.34,-48.8 416.34,-84.8"/>
<text text-anchor="middle" x="330" y="-62.6" font-family="Times,serif" font-size="14.00">ForgotPasswordComponent</text>
</g>
<!-- ForgotPasswordModule -->
<g id="node2" class="node">
<title>ForgotPasswordModule</title>
<polygon fill="#8dd3c7" stroke="black" points="301.06,-149.8 298.06,-153.8 277.06,-153.8 274.06,-149.8 150.94,-149.8 150.94,-113.8 301.06,-113.8 301.06,-149.8"/>
<text text-anchor="middle" x="226" y="-127.6" font-family="Times,serif" font-size="14.00">ForgotPasswordModule</text>
</g>
<!-- ForgotPasswordComponent&#45;&gt;ForgotPasswordModule -->
<g id="edge1" class="edge">
<title>ForgotPasswordComponent&#45;&gt;ForgotPasswordModule</title>
<path fill="none" stroke="black" d="M272.56,-84.91C272.56,-84.91 272.56,-103.79 272.56,-103.79"/>
<polygon fill="black" stroke="black" points="269.06,-103.79 272.56,-113.79 276.06,-103.79 269.06,-103.79"/>
</g>
<!-- ForgotPasswordRoutingModule -->
<g id="node3" class="node">
<title>ForgotPasswordRoutingModule</title>
<polygon fill="#8dd3c7" stroke="black" points="219.68,-84.8 216.68,-88.8 195.68,-88.8 192.68,-84.8 24.32,-84.8 24.32,-48.8 219.68,-48.8 219.68,-84.8"/>
<text text-anchor="middle" x="122" y="-62.6" font-family="Times,serif" font-size="14.00">ForgotPasswordRoutingModule</text>
</g>
<!-- ForgotPasswordRoutingModule&#45;&gt;ForgotPasswordModule -->
<g id="edge2" class="edge">
<title>ForgotPasswordRoutingModule&#45;&gt;ForgotPasswordModule</title>
<path fill="none" stroke="black" d="M185.28,-84.91C185.28,-84.91 185.28,-103.79 185.28,-103.79"/>
<polygon fill="black" stroke="black" points="181.78,-103.79 185.28,-113.79 188.78,-103.79 181.78,-103.79"/>
</g>
</g>
</svg>
