<?xml version="1.0" encoding="UTF-8" standalone="no"?>
<!DOCTYPE svg PUBLIC "-//W3C//DTD SVG 1.1//EN"
 "http://www.w3.org/Graphics/SVG/1.1/DTD/svg11.dtd">
<!-- Generated by graphviz version 5.0.0 (20220707.1540)
 -->
<!-- Title: dependencies Pages: 1 -->
<svg width="376pt" height="174pt"
 viewBox="0.00 0.00 376.00 173.80" xmlns="http://www.w3.org/2000/svg" xmlns:xlink="http://www.w3.org/1999/xlink">
<g id="graph0" class="graph" transform="scale(1 1) rotate(0) translate(4 169.8)">
<title>dependencies</title>
<polygon fill="white" stroke="transparent" points="-4,4 -4,-169.8 372,-169.8 372,4 -4,4"/>
<text text-anchor="middle" x="184" y="-8.2" font-family="sans-serif" font-size="14.00">dependencies</text>
<g id="clust1" class="cluster">
<title>cluster_InventoryModule</title>
<polygon fill="none" stroke="black" stroke-dasharray="1,5" points="8,-32.8 8,-157.8 360,-157.8 360,-32.8 8,-32.8"/>
</g>
<g id="clust4" class="cluster">
<title>cluster_InventoryModule_imports</title>
<polygon fill="none" stroke="black" points="176,-40.8 176,-92.8 352,-92.8 352,-40.8 176,-40.8"/>
</g>
<g id="clust2" class="cluster">
<title>cluster_InventoryModule_declarations</title>
<polygon fill="none" stroke="black" points="16,-40.8 16,-92.8 168,-92.8 168,-40.8 16,-40.8"/>
</g>
<!-- InventoryComponent -->
<g id="node1" class="node">
<title>InventoryComponent</title>
<polygon fill="#ffffb3" stroke="black" points="159.76,-84.8 24.24,-84.8 24.24,-48.8 159.76,-48.8 159.76,-84.8"/>
<text text-anchor="middle" x="92" y="-62.6" font-family="Times,serif" font-size="14.00">InventoryComponent</text>
</g>
<!-- InventoryModule -->
<g id="node2" class="node">
<title>InventoryModule</title>
<polygon fill="#8dd3c7" stroke="black" points="234.98,-149.8 231.98,-153.8 210.98,-153.8 207.98,-149.8 121.02,-149.8 121.02,-113.8 234.98,-113.8 234.98,-149.8"/>
<text text-anchor="middle" x="178" y="-127.6" font-family="Times,serif" font-size="14.00">InventoryModule</text>
</g>
<!-- InventoryComponent&#45;&gt;InventoryModule -->
<g id="edge1" class="edge">
<title>InventoryComponent&#45;&gt;InventoryModule</title>
<path fill="none" stroke="black" d="M140.44,-84.91C140.44,-84.91 140.44,-103.79 140.44,-103.79"/>
<polygon fill="black" stroke="black" points="136.94,-103.79 140.44,-113.79 143.94,-103.79 136.94,-103.79"/>
</g>
<!-- InventoryRoutingModule -->
<g id="node3" class="node">
<title>InventoryRoutingModule</title>
<polygon fill="#8dd3c7" stroke="black" points="343.6,-84.8 340.6,-88.8 319.6,-88.8 316.6,-84.8 184.4,-84.8 184.4,-48.8 343.6,-48.8 343.6,-84.8"/>
<text text-anchor="middle" x="264" y="-62.6" font-family="Times,serif" font-size="14.00">InventoryRoutingModule</text>
</g>
<!-- InventoryRoutingModule&#45;&gt;InventoryModule -->
<g id="edge2" class="edge">
<title>InventoryRoutingModule&#45;&gt;InventoryModule</title>
<path fill="none" stroke="black" d="M209.72,-84.91C209.72,-84.91 209.72,-103.79 209.72,-103.79"/>
<polygon fill="black" stroke="black" points="206.22,-103.79 209.72,-113.79 213.22,-103.79 206.22,-103.79"/>
</g>
</g>
</svg>
