<?xml version="1.0" encoding="UTF-8" standalone="no"?>
<!DOCTYPE svg PUBLIC "-//W3C//DTD SVG 1.1//EN"
 "http://www.w3.org/Graphics/SVG/1.1/DTD/svg11.dtd">
<!-- Generated by graphviz version 5.0.0 (20220707.1540)
 -->
<!-- Title: dependencies Pages: 1 -->
<svg width="304pt" height="174pt"
 viewBox="0.00 0.00 304.00 173.80" xmlns="http://www.w3.org/2000/svg" xmlns:xlink="http://www.w3.org/1999/xlink">
<g id="graph0" class="graph" transform="scale(1 1) rotate(0) translate(4 169.8)">
<title>dependencies</title>
<polygon fill="white" stroke="transparent" points="-4,4 -4,-169.8 300,-169.8 300,4 -4,4"/>
<text text-anchor="middle" x="148" y="-8.2" font-family="sans-serif" font-size="14.00">dependencies</text>
<g id="clust1" class="cluster">
<title>cluster_RtsModule</title>
<polygon fill="none" stroke="black" stroke-dasharray="1,5" points="8,-32.8 8,-157.8 288,-157.8 288,-32.8 8,-32.8"/>
</g>
<g id="clust4" class="cluster">
<title>cluster_RtsModule_imports</title>
<polygon fill="none" stroke="black" points="140,-40.8 140,-92.8 280,-92.8 280,-40.8 140,-40.8"/>
</g>
<g id="clust2" class="cluster">
<title>cluster_RtsModule_declarations</title>
<polygon fill="none" stroke="black" points="16,-40.8 16,-92.8 132,-92.8 132,-40.8 16,-40.8"/>
</g>
<!-- RtsComponent -->
<g id="node1" class="node">
<title>RtsComponent</title>
<polygon fill="#ffffb3" stroke="black" points="124.01,-84.8 23.99,-84.8 23.99,-48.8 124.01,-48.8 124.01,-84.8"/>
<text text-anchor="middle" x="74" y="-62.6" font-family="Times,serif" font-size="14.00">RtsComponent</text>
</g>
<!-- RtsModule -->
<g id="node2" class="node">
<title>RtsModule</title>
<polygon fill="#8dd3c7" stroke="black" points="181.23,-149.8 178.23,-153.8 157.23,-153.8 154.23,-149.8 102.77,-149.8 102.77,-113.8 181.23,-113.8 181.23,-149.8"/>
<text text-anchor="middle" x="142" y="-127.6" font-family="Times,serif" font-size="14.00">RtsModule</text>
</g>
<!-- RtsComponent&#45;&gt;RtsModule -->
<g id="edge1" class="edge">
<title>RtsComponent&#45;&gt;RtsModule</title>
<path fill="none" stroke="black" d="M113.44,-84.91C113.44,-84.91 113.44,-103.79 113.44,-103.79"/>
<polygon fill="black" stroke="black" points="109.94,-103.79 113.44,-113.79 116.94,-103.79 109.94,-103.79"/>
</g>
<!-- RtsRoutingModule -->
<g id="node3" class="node">
<title>RtsRoutingModule</title>
<polygon fill="#8dd3c7" stroke="black" points="271.85,-84.8 268.85,-88.8 247.85,-88.8 244.85,-84.8 148.15,-84.8 148.15,-48.8 271.85,-48.8 271.85,-84.8"/>
<text text-anchor="middle" x="210" y="-62.6" font-family="Times,serif" font-size="14.00">RtsRoutingModule</text>
</g>
<!-- RtsRoutingModule&#45;&gt;RtsModule -->
<g id="edge2" class="edge">
<title>RtsRoutingModule&#45;&gt;RtsModule</title>
<path fill="none" stroke="black" d="M164.72,-84.91C164.72,-84.91 164.72,-103.79 164.72,-103.79"/>
<polygon fill="black" stroke="black" points="161.22,-103.79 164.72,-113.79 168.22,-103.79 161.22,-103.79"/>
</g>
</g>
</svg>
