<?xml version="1.0" encoding="UTF-8" standalone="no"?>
<!DOCTYPE svg PUBLIC "-//W3C//DTD SVG 1.1//EN"
 "http://www.w3.org/Graphics/SVG/1.1/DTD/svg11.dtd">
<!-- Generated by graphviz version 5.0.0 (20220707.1540)
 -->
<!-- Title: dependencies Pages: 1 -->
<svg width="296pt" height="174pt"
 viewBox="0.00 0.00 296.00 173.80" xmlns="http://www.w3.org/2000/svg" xmlns:xlink="http://www.w3.org/1999/xlink">
<g id="graph0" class="graph" transform="scale(1 1) rotate(0) translate(4 169.8)">
<title>dependencies</title>
<polygon fill="white" stroke="transparent" points="-4,4 -4,-169.8 292,-169.8 292,4 -4,4"/>
<text text-anchor="middle" x="144" y="-8.2" font-family="sans-serif" font-size="14.00">dependencies</text>
<g id="clust1" class="cluster">
<title>cluster_SuModule</title>
<polygon fill="none" stroke="black" stroke-dasharray="1,5" points="8,-32.8 8,-157.8 280,-157.8 280,-32.8 8,-32.8"/>
</g>
<g id="clust2" class="cluster">
<title>cluster_SuModule_declarations</title>
<polygon fill="none" stroke="black" points="160,-40.8 160,-92.8 272,-92.8 272,-40.8 160,-40.8"/>
</g>
<g id="clust4" class="cluster">
<title>cluster_SuModule_imports</title>
<polygon fill="none" stroke="black" points="16,-40.8 16,-92.8 152,-92.8 152,-40.8 16,-40.8"/>
</g>
<!-- SuComponent -->
<g id="node1" class="node">
<title>SuComponent</title>
<polygon fill="#ffffb3" stroke="black" points="264.12,-84.8 167.88,-84.8 167.88,-48.8 264.12,-48.8 264.12,-84.8"/>
<text text-anchor="middle" x="216" y="-62.6" font-family="Times,serif" font-size="14.00">SuComponent</text>
</g>
<!-- SuModule -->
<g id="node2" class="node">
<title>SuModule</title>
<polygon fill="#8dd3c7" stroke="black" points="187.34,-149.8 184.34,-153.8 163.34,-153.8 160.34,-149.8 112.66,-149.8 112.66,-113.8 187.34,-113.8 187.34,-149.8"/>
<text text-anchor="middle" x="150" y="-127.6" font-family="Times,serif" font-size="14.00">SuModule</text>
</g>
<!-- SuComponent&#45;&gt;SuModule -->
<g id="edge1" class="edge">
<title>SuComponent&#45;&gt;SuModule</title>
<path fill="none" stroke="black" d="M177.56,-84.91C177.56,-84.91 177.56,-103.79 177.56,-103.79"/>
<polygon fill="black" stroke="black" points="174.06,-103.79 177.56,-113.79 181.06,-103.79 174.06,-103.79"/>
</g>
<!-- SuRoutingModule -->
<g id="node3" class="node">
<title>SuRoutingModule</title>
<polygon fill="#8dd3c7" stroke="black" points="143.96,-84.8 140.96,-88.8 119.96,-88.8 116.96,-84.8 24.04,-84.8 24.04,-48.8 143.96,-48.8 143.96,-84.8"/>
<text text-anchor="middle" x="84" y="-62.6" font-family="Times,serif" font-size="14.00">SuRoutingModule</text>
</g>
<!-- SuRoutingModule&#45;&gt;SuModule -->
<g id="edge2" class="edge">
<title>SuRoutingModule&#45;&gt;SuModule</title>
<path fill="none" stroke="black" d="M128.28,-84.91C128.28,-84.91 128.28,-103.79 128.28,-103.79"/>
<polygon fill="black" stroke="black" points="124.78,-103.79 128.28,-113.79 131.78,-103.79 124.78,-103.79"/>
</g>
</g>
</svg>
