<svg xmlns="http://www.w3.org/2000/svg" xmlns:xlink="http://www.w3.org/1999/xlink" width="422.634" height="395.481" viewBox="0 0 422.634 395.481"><defs><clipPath id="a"><rect width="422.634" height="395.481" fill="none"/></clipPath></defs><g transform="translate(0 0)" clip-path="url(#a)"><path d="M16.245,58.822l31.37,17.25,46.407,185.57L72.16,278.892a21.488,21.488,0,0,0-8.2,16.954V328.36a21.654,21.654,0,0,0,21.287,21.589l21.571.314a34.283,34.283,0,0,0-1.661,10.611,34.6,34.6,0,1,0,67.833-9.676l143.356,2.01a33.448,33.448,0,0,0-.871,7.667,34.6,34.6,0,0,0,69.21,0,33.184,33.184,0,0,0-.674-6.708l9.432.122a21.591,21.591,0,0,0,15.484-36.643,21.477,21.477,0,0,0-15.182-6.546l-286.6-4.037V306.3l15.177-11.953a28.755,28.755,0,0,0,4.135.314L360.9,296.839A31.2,31.2,0,0,0,391.456,272.5l30.382-132.257a31.4,31.4,0,0,0-23.552-37.567h-.006a31.4,31.4,0,0,0-37.573,23.535L335.982,233.9l-184.693-1.7L105.127,47.572a31.6,31.6,0,0,0-15.3-19.864L46.453,3.86A31.358,31.358,0,0,0,16.245,58.822m2.678-34.3a14.2,14.2,0,0,1,19.26-5.6L81.528,42.757a14.32,14.32,0,0,1,6.935,8.991l47.766,191.064a8.593,8.593,0,0,0,8.259,6.493l198.243,1.847a8.856,8.856,0,0,0,8.445-6.679l26.276-114.408a14.18,14.18,0,0,1,27.641,6.342L374.711,268.664a14.155,14.155,0,0,1-13.945,11.006l-234.2-2.178a13.709,13.709,0,0,1-3.891-.651,8.573,8.573,0,0,0-7.789,1.469L93.243,295.4a8.577,8.577,0,0,0-3.276,6.737v13.394a8.605,8.605,0,0,0,8.468,8.59l295.059,4.153a4.318,4.318,0,0,1,3.113,1.342,4.378,4.378,0,0,1,1.249,3.136,4.452,4.452,0,0,1-4.478,4.356l-22.4-.308a8.583,8.583,0,0,0-7,13.73,17.153,17.153,0,0,1,3.52,10.338,17.427,17.427,0,0,1-34.855,0,17.268,17.268,0,0,1,3.845-10.733,8.59,8.59,0,0,0-6.615-13.922l-171.717-2.41h-.087A8.587,8.587,0,0,0,152,348.5a17.468,17.468,0,1,1-24.057-.325,8.588,8.588,0,0,0-5.733-14.875l-36.736-.534a4.409,4.409,0,0,1-4.339-4.4V295.846a4.384,4.384,0,0,1,1.679-3.473l26.206-20.689a8.579,8.579,0,0,0,3.009-8.828L63.366,68.261a8.513,8.513,0,0,0-4.193-5.431L24.527,43.774a14.2,14.2,0,0,1-5.6-19.248" transform="translate(0.001 0.004)" fill="#f79007"/><path d="M122.911,6.344H82.144A22.206,22.206,0,0,0,59.969,28.537V81.182H47.388c-7.829,0-13.934,3.189-16.716,8.747s-1.708,12.342,2.968,18.638l51.832,69.57c4.3,5.773,10.524,9.09,17.064,9.09s12.755-3.316,17.058-9.09l51.838-69.581c4.676-6.284,5.75-13.08,2.962-18.638s-8.892-8.735-16.716-8.735H145.1V28.537A22.212,22.212,0,0,0,122.911,6.344m34.7,92.012-51.791,69.517c-2.056,2.765-4.507,2.765-6.569,0L47.458,98.356H68.565a8.588,8.588,0,0,0,8.584-8.59V28.537a5.011,5.011,0,0,1,4.995-5.018h40.767a5.017,5.017,0,0,1,5.007,5.018V89.766a8.588,8.588,0,0,0,8.584,8.59Z" transform="translate(140.156 30.505)" fill="#f79007"/></g></svg>