<svg xmlns="http://www.w3.org/2000/svg" xmlns:xlink="http://www.w3.org/1999/xlink" width="302.251" height="288.435" viewBox="0 0 302.251 288.435"><defs><clipPath id="a"><rect width="302.251" height="288.435" fill="none"/></clipPath></defs><g transform="translate(0 0)" clip-path="url(#a)"><path d="M7.614,136.7c-3.757-.2-7,1.742-7.538,4.479s1.852,5.311,5.475,5.9a446.138,446.138,0,0,0,71.342,6.179c101.826-.007,154.531-43.4,192-89.473l22.665,10.125a9.1,9.1,0,0,0,7.609-.167c2.277-1.159,3.437-3.2,2.984-5.215L287.582,4.379A5.629,5.629,0,0,0,284.011.643a9.3,9.3,0,0,0-6.148-.228l-77.1,24.356c-2.544.807-4.229,2.649-4.3,4.7s1.48,3.964,3.962,4.86l23.238,8.45c-62,101.685-209.7,94.29-216.044,93.917m231.73-94.383c1.451-2.577-.038-5.549-3.408-6.769l-15.4-5.6L275.152,12.7l10.521,46.319L270.092,52.06a9.2,9.2,0,0,0-5.375-.583,7.226,7.226,0,0,0-4.344,2.425C222.585,101.741,173.1,144.27,72.244,142.77c54.457-8.632,128.878-32.98,167.1-100.451" transform="translate(0 -0.001)" fill="#f79007"/><path d="M25.552,57.318c-13.624,0-24.3,9.915-24.3,22.567v39.536c0,12.652,10.679,22.567,24.3,22.567H58.782c13.629,0,24.3-9.915,24.3-22.567V79.885c0-12.652-10.674-22.567-24.3-22.567ZM68.964,79.885v39.536c0,6.417-4.755,12.048-10.182,12.048H25.552c-5.423,0-10.182-5.631-10.182-12.048V79.885c0-6.417,4.759-12.048,10.182-12.048H58.782c5.428,0,10.182,5.631,10.182,12.048" transform="translate(4.717 146.448)" fill="#f79007"/><path d="M46.593,46.89c-13.624,0-24.3,9.915-24.3,22.567v76.608c0,12.649,10.679,22.564,24.3,22.564H79.827c13.624,0,24.3-9.915,24.3-22.564V69.457c0-12.652-10.674-22.567-24.3-22.567ZM90,69.457v76.608c0,6.417-4.759,12.044-10.177,12.044H46.593c-5.423,0-10.182-5.628-10.182-12.044V69.457c0-6.417,4.759-12.048,10.182-12.048H79.827C85.245,57.409,90,63.041,90,69.457" transform="translate(84.118 119.804)" fill="#f79007"/><path d="M102.937,34.379H69.712c-13.629,0-24.3,9.915-24.3,22.564V178.031c0,12.652,10.674,22.567,24.3,22.567h33.224c13.629,0,24.3-9.915,24.3-22.567V56.943c0-12.649-10.674-22.564-24.3-22.564m10.187,143.652c0,6.417-4.759,12.048-10.187,12.048H69.712c-5.423,0-10.182-5.631-10.182-12.048V56.943c0-6.42,4.759-12.052,10.182-12.052h33.224c5.428,0,10.187,5.631,10.187,12.052Z" transform="translate(171.36 87.838)" fill="#f79007"/></g></svg>