<svg xmlns="http://www.w3.org/2000/svg" xmlns:xlink="http://www.w3.org/1999/xlink" width="409.443" height="395.481" viewBox="0 0 409.443 395.481"><defs><clipPath id="a"><rect width="409.443" height="395.481" fill="none"/></clipPath></defs><path d="M152.038,17.426H76.655V65.133h75.383Zm-20.9,6.37L114.349,37.2,97.556,23.8Zm14.534,34.966H83.025V23.8h4.324l27,21.559,27-21.559h4.324Z" transform="translate(208.577 47.416)" fill="#f79007"/><g clip-path="url(#a)"><path d="M49.047,131.846a52.469,52.469,0,0,0,15.174,31.885,5.5,5.5,0,0,0,9.3-2.951A16.732,16.732,0,0,1,90,146.909h27.461a16.652,16.652,0,0,1,15.606,10.728,5.5,5.5,0,0,0,9.436,1.444,52.484,52.484,0,0,0-35.774-84.905,53.362,53.362,0,0,0-5.381-.286,52.6,52.6,0,0,0-52.306,57.958m52.306,7.111a19.909,19.909,0,1,1,19.907-19.911,19.934,19.934,0,0,1-19.907,19.911M70.535,98.577a41.636,41.636,0,0,1,30.817-13.682c1.343,0,2.787.078,4.3.227a41.5,41.5,0,0,1,32.685,60.239,27.446,27.446,0,0,0-17.1-9.176,26.283,26.283,0,1,0-38.992.856A27.637,27.637,0,0,0,66.42,149.048a41.611,41.611,0,0,1,4.115-50.471" transform="translate(132.724 201.048)" fill="#f79007"/><path d="M32.635,180.088A5.5,5.5,0,0,0,42,176.17v-4.834a33.3,33.3,0,0,1,29.589-33.128c.071-.007.13-.015.2-.026a33.3,33.3,0,0,1,3.572-.2H123.23a33.4,33.4,0,0,1,33.355,33.359v4.834a5.51,5.51,0,0,0,9.377,3.918A94.889,94.889,0,1,0,4.378,112.611a94.219,94.219,0,0,0,28.257,67.476m71.722-53.117H94.21a36.568,36.568,0,1,1,10.147,0m-5.064-98.26a84,84,0,0,1,83.908,83.9A83.093,83.093,0,0,1,166.71,162.5,44.458,44.458,0,0,0,127.5,127.19a46.115,46.115,0,1,0-56.41.011c-.141.011-.279.019-.428.033a5.008,5.008,0,0,0-.666.078A44.308,44.308,0,0,0,31.876,162.5a83.1,83.1,0,0,1-16.5-49.891,84,84,0,0,1,83.912-83.9" transform="translate(11.912 48.172)" fill="#f79007"/><path d="M138.785,146.376A71.117,71.117,0,1,0,67.673,75.256a71.2,71.2,0,0,0,71.112,71.119m0-131.228A60.111,60.111,0,1,1,78.68,75.256a60.175,60.175,0,0,1,60.105-60.109" transform="translate(184.137 11.268)" fill="#f79007"/><path d="M0,160.788A111.065,111.065,0,0,0,159.046,261.113l21.742,24.19a67.971,67.971,0,0,0,46.39,109.84,68.8,68.8,0,0,0,6.9.339A67.97,67.97,0,1,0,200.97,268.246L181.6,246.69a111.643,111.643,0,0,0,40.83-85.9,110.321,110.321,0,0,0-3.181-26.159l26.371-9.325a86.466,86.466,0,1,0-9.213-38.78,85.319,85.319,0,0,0,1.113,13.637L209.957,109.9A111.125,111.125,0,0,0,0,160.788m111.205-100.2a100.61,100.61,0,0,1,90.967,58.442,5.5,5.5,0,0,0,6.828,2.88l36.637-12.945a5.5,5.5,0,0,0,3.542-6.359,75.446,75.446,0,1,1,4.365,13.671,5.507,5.507,0,0,0-6.891-3.014l-35.874,12.689a5.508,5.508,0,0,0-3.449,6.735,99.568,99.568,0,0,1-37.035,108.854,5.5,5.5,0,0,0-.841,8.115l26.367,29.325a5.506,5.506,0,0,0,7.092.938,57.715,57.715,0,0,1,36.964-9.09,56.972,56.972,0,0,1-5.8,113.65c-1.968,0-3.918-.093-5.808-.283a56.969,56.969,0,0,1-36.633-94.7c.156-.145.5-.484.64-.647a5.5,5.5,0,0,0-.056-7.293l-27.8-30.929a5.513,5.513,0,0,0-6.661-1.191A98.731,98.731,0,0,1,111.205,261a100.208,100.208,0,0,1,0-200.416" fill="#f79007"/></g></svg>