<?xml version="1.0" encoding="UTF-8" standalone="no"?>
<!DOCTYPE svg PUBLIC "-//W3C//DTD SVG 1.1//EN"
 "http://www.w3.org/Graphics/SVG/1.1/DTD/svg11.dtd">
<!-- Generated by graphviz version 5.0.0 (20220707.1540)
 -->
<!-- Title: dependencies Pages: 1 -->
<svg width="360pt" height="174pt"
 viewBox="0.00 0.00 360.00 173.80" xmlns="http://www.w3.org/2000/svg" xmlns:xlink="http://www.w3.org/1999/xlink">
<g id="graph0" class="graph" transform="scale(1 1) rotate(0) translate(4 169.8)">
<title>dependencies</title>
<polygon fill="white" stroke="transparent" points="-4,4 -4,-169.8 356,-169.8 356,4 -4,4"/>
<text text-anchor="middle" x="176" y="-8.2" font-family="sans-serif" font-size="14.00">dependencies</text>
<g id="clust1" class="cluster">
<title>cluster_RegisterModule</title>
<polygon fill="none" stroke="black" stroke-dasharray="1,5" points="8,-32.8 8,-157.8 344,-157.8 344,-32.8 8,-32.8"/>
</g>
<g id="clust2" class="cluster">
<title>cluster_RegisterModule_declarations</title>
<polygon fill="none" stroke="black" points="192,-40.8 192,-92.8 336,-92.8 336,-40.8 192,-40.8"/>
</g>
<g id="clust4" class="cluster">
<title>cluster_RegisterModule_imports</title>
<polygon fill="none" stroke="black" points="16,-40.8 16,-92.8 184,-92.8 184,-40.8 16,-40.8"/>
</g>
<!-- RegisterComponent -->
<g id="node1" class="node">
<title>RegisterComponent</title>
<polygon fill="#ffffb3" stroke="black" points="327.99,-84.8 200.01,-84.8 200.01,-48.8 327.99,-48.8 327.99,-84.8"/>
<text text-anchor="middle" x="264" y="-62.6" font-family="Times,serif" font-size="14.00">RegisterComponent</text>
</g>
<!-- RegisterModule -->
<g id="node2" class="node">
<title>RegisterModule</title>
<polygon fill="#8dd3c7" stroke="black" points="235.21,-149.8 232.21,-153.8 211.21,-153.8 208.21,-149.8 128.79,-149.8 128.79,-113.8 235.21,-113.8 235.21,-149.8"/>
<text text-anchor="middle" x="182" y="-127.6" font-family="Times,serif" font-size="14.00">RegisterModule</text>
</g>
<!-- RegisterComponent&#45;&gt;RegisterModule -->
<g id="edge1" class="edge">
<title>RegisterComponent&#45;&gt;RegisterModule</title>
<path fill="none" stroke="black" d="M217.56,-84.91C217.56,-84.91 217.56,-103.79 217.56,-103.79"/>
<polygon fill="black" stroke="black" points="214.06,-103.79 217.56,-113.79 221.06,-103.79 214.06,-103.79"/>
</g>
<!-- RegisterRoutingModule -->
<g id="node3" class="node">
<title>RegisterRoutingModule</title>
<polygon fill="#8dd3c7" stroke="black" points="175.82,-84.8 172.82,-88.8 151.82,-88.8 148.82,-84.8 24.18,-84.8 24.18,-48.8 175.82,-48.8 175.82,-84.8"/>
<text text-anchor="middle" x="100" y="-62.6" font-family="Times,serif" font-size="14.00">RegisterRoutingModule</text>
</g>
<!-- RegisterRoutingModule&#45;&gt;RegisterModule -->
<g id="edge2" class="edge">
<title>RegisterRoutingModule&#45;&gt;RegisterModule</title>
<path fill="none" stroke="black" d="M152.28,-84.91C152.28,-84.91 152.28,-103.79 152.28,-103.79"/>
<polygon fill="black" stroke="black" points="148.78,-103.79 152.28,-113.79 155.78,-103.79 148.78,-103.79"/>
</g>
</g>
</svg>
